<svg width="150" height="145" viewBox="0 0 150 145" fill="none" xmlns="http://www.w3.org/2000/svg">
<ellipse cx="129.016" cy="16.9717" rx="20.9318" ry="16.9717" fill="#E5E6E8"/>
<path d="M109.717 32.3565C108.617 32.701 107.711 31.4474 108.384 30.5113L115.695 20.3326C116.173 19.6672 117.163 19.6658 117.642 20.3299L122.291 26.7633C122.771 27.4274 122.459 28.3664 121.677 28.6113L109.717 32.3565Z" fill="#E5E6E8"/>
<circle cx="119.963" cy="17.5373" r="2.2629" fill="white"/>
<circle cx="128.448" cy="17.5376" r="2.82862" fill="white"/>
<circle cx="137.501" cy="16.9722" r="2.82862" fill="white"/>
<ellipse cx="63.0526" cy="134" rx="63" ry="11" fill="#848484"/>
<rect width="67.9097" height="38.3778" transform="matrix(0.642612 -0.766191 0.771254 0.636528 11.5011 98.9668)" fill="#6B6C6D"/>
<rect width="68.1206" height="38.6528" transform="matrix(-0.652572 -0.757726 0.76296 -0.646446 86.1565 124.102)" fill="#6B6C6D"/>
<rect x="27.3522" y="25.457" width="71.2812" height="98.436" rx="4" fill="white"/>
<rect x="34.7057" y="32.8115" width="56.5724" height="33.9434" rx="2" fill="#E5E6E8"/>
<rect x="34.7057" y="74.6758" width="56.5724" height="4.52579" rx="2.2629" fill="#E5E6E8"/>
<rect x="34.7057" y="87.1211" width="56.5724" height="4.52579" rx="2.2629" fill="#E5E6E8"/>
<path d="M11.5107 99.0029H31.1913C37.8187 99.0029 43.1913 104.376 43.1913 111.003V138.604H23.5107C16.8833 138.604 11.5107 133.231 11.5107 126.604V99.0029Z" fill="#E5E6E8"/>
<path d="M83.9235 111.003C83.9235 104.376 89.296 99.0029 95.9235 99.0029H115.604V126.604C115.604 133.231 110.231 138.604 103.604 138.604H83.9235V111.003Z" fill="#E5E6E8"/>
<rect x="37.5347" y="109.752" width="50.3494" height="28.8519" fill="#E5E6E8"/>
<path d="M46.1412 110.02C43.0499 109.666 42.2053 107.315 42.1694 106.184C41.7839 106.48 41.0165 107.183 41.0308 107.635C41.0452 108.088 40.4989 109.539 40.224 110.208L43.2006 110.68L46.1412 110.02Z" fill="#E5E6E8"/>
<path d="M84.7845 106.563C84.1573 109.472 81.7417 110.065 80.6122 109.997C80.8721 110.39 81.5048 111.184 81.9565 111.211C82.4083 111.238 83.8052 111.888 84.4472 112.21L85.1806 109.42L84.7845 106.563Z" fill="#E5E6E8"/>
</svg>
